<?xml version="1.0" standalone="no"?><!DOCTYPE svg PUBLIC "-//W3C//DTD SVG 1.1//EN" "http://www.w3.org/Graphics/SVG/1.1/DTD/svg11.dtd"><svg t="1569583170305" class="icon" viewBox="0 0 1024 1024" version="1.1" xmlns="http://www.w3.org/2000/svg" p-id="3080" xmlns:xlink="http://www.w3.org/1999/xlink" width="200" height="200"><defs><style type="text/css"></style></defs><path d="M671.2 496.5l-0.1-0.1-130.4-103c-15.3-13.4-36.2-13.4-52.1 0L352 496l-0.8 0.6c-5.1 4.6-8 11.2-8 18.1 0 6.6 2.7 13.1 7.5 17.7 4.7 4.5 10.8 6.9 17.2 6.6 5.4-0.2 10.7-2.3 16.1-6.5l106.3-76.9v276.8c0 13.4 10.9 24.3 24.3 24.3s24.3-10.9 24.3-24.3V456l99.5 76.4c5.4 4.4 10.8 6.6 16.7 6.6 13.4 0 24.3-10.9 24.3-24.3 0.1-7.1-2.9-13.6-8.2-18.2z" fill="#d81e06" p-id="3081" data-spm-anchor-id="a313x.7781069.0.i2" class="selected"></path><path d="M638.5 304.2H391.9c-13.4 0-24.3 10.9-24.3 24.3s10.9 24.3 24.3 24.3h246.6c13.4 0 24.3-10.9 24.3-24.3s-10.9-24.3-24.3-24.3z" fill="#d81e06" p-id="3082" data-spm-anchor-id="a313x.7781069.0.i3" class="selected"></path><path d="M921.5 438.9c-8.2-45.4-23.9-88.8-46.7-129-22.2-39.3-50.5-74.6-84.1-104.8-34.1-30.7-72.6-55.3-114.5-73.3-42.7-18.3-87.8-29.2-134.3-32.4-42.2-2.9-84.2 0.6-125.1 10.3-37.7 9-73.9 23.3-107.8 42.5-33 18.7-63.3 41.9-90.2 69-27 27.2-50 57.9-68.6 91.2-18.8 33.8-32.7 70.1-41.4 107.7-9.5 41.1-12.6 83.5-9.3 125.9 3.1 39.3 11.7 77.8 25.7 114.5 13.6 35.9 32.2 69.7 55.3 100.6 22.7 30.4 49.4 57.6 79.5 80.8 30.3 23.4 63.6 42.5 99 56.7 36.5 14.7 75 24 114.3 27.8 13.2 1.3 26.6 1.9 39.9 1.9 10.5 0 21.1-0.4 31.5-1.2 46.4-3.5 91.5-14.7 134.2-33.4 41.9-18.3 80.3-43.3 114.2-74.4 33.5-30.7 61.6-66.3 83.5-105.9 22.6-40.9 38-84.8 45.7-130.8 8.2-47.8 7.9-96.1-0.8-143.7zM853.3 652c-24.6 60.2-65 113-116.8 152.8-52.7 40.4-115.3 65.7-181 73.2-17 1.9-34.5 2.7-51.8 2.3-75.6-2-150.4-28.1-210.7-73.6-62.5-47.2-109.1-113.7-131.2-187.4-24.3-80.6-20-167.7 11.9-245.2 27.8-67.5 76.9-126.9 138.2-167.2 71.8-47.3 158.2-68 243.4-58.3 77.1 8.8 150.9 42.8 207.9 95.8 56.8 52.6 96 123.3 110.6 198.9 13.4 69.5 6.1 143.6-20.5 208.7z" fill="#ffffff" p-id="3083" data-spm-anchor-id="a313x.7781069.0.i0" class=""></path></svg>