<?xml version="1.0" standalone="no"?><!DOCTYPE svg PUBLIC "-//W3C//DTD SVG 1.1//EN" "http://www.w3.org/Graphics/SVG/1.1/DTD/svg11.dtd"><svg t="1567671098185" class="icon" viewBox="0 0 1024 1024" version="1.1" xmlns="http://www.w3.org/2000/svg" p-id="1503" xmlns:xlink="http://www.w3.org/1999/xlink" width="200" height="200"><defs><style type="text/css"></style></defs><path d="M940.959 227.336c-29.519-35.119-83.897-36.133-90.001-36.133H230.812l-11.275-50.908c-9.978-71.405-63.781-76.966-80.049-76.966h-41.55c-17.521 0-31.775 14.254-31.775 31.775s14.254 31.775 31.775 31.775h41.55c9.34 0 16.687 11.645 18.138 22.433l0.036 0.264 100.151 452.183c5.5 41.525 24.942 70.975 57.789 87.528 18.729 9.438 41.063 14.225 66.381 14.225 1.359 0 2.546-0.012 3.538-0.022 0.669-0.007 1.244-0.013 1.716-0.013h495.497c17.521 0 31.774-14.255 31.774-31.775s-14.254-31.774-31.774-31.774H386.933c-40.059 0-62.674-15.891-67.216-47.23l-0.033-0.229-2.85-12.867h513.99l126.052-276.389 0.137-0.785c5.371-30.764-0.031-56.029-16.054-75.092z m-50.466 63.733l-95.792 225.102-491.941-0.115-57.873-261.303h606.071c7.696 0 25.72 0 34.55 10.303 4.963 5.791 6.639 14.54 4.985 26.013zM387.236 758.025c-54.728 0-99.1 44.372-99.1 99.1s44.372 99.1 99.1 99.1c54.727 0 99.1-44.372 99.1-99.1s-44.374-99.1-99.1-99.1z m396.397 0c-54.728 0-99.099 44.372-99.099 99.1s44.371 99.1 99.099 99.1c54.729 0 99.1-44.372 99.1-99.1s-44.372-99.1-99.1-99.1z" fill="#d81e06" p-id="1504"></path></svg>