<?xml version="1.0" standalone="no"?><!DOCTYPE svg PUBLIC "-//W3C//DTD SVG 1.1//EN" "http://www.w3.org/Graphics/SVG/1.1/DTD/svg11.dtd"><svg t="1567670963884" class="icon" viewBox="0 0 1024 1024" version="1.1" xmlns="http://www.w3.org/2000/svg" p-id="895" xmlns:xlink="http://www.w3.org/1999/xlink" width="200" height="200"><defs><style type="text/css"></style></defs><path d="M621.80536 509.190001c72.541153-41.201377 121.483842-119.160937 121.483842-208.505801 0-132.347261-107.33868-239.687988-239.687988-239.687988-132.324748 0-239.639892 107.340727-239.639892 239.687988 0 91.487667 51.290153 171.018002 126.677121 211.375152-188.30676 51.953256-326.757019 221.944881-326.757019 423.073668 0 8.767688 0.432859 17.60496 0.934279 26.372647l44.730761-2.095731c-0.432859-8.15268-0.865717-16.216333-0.865717-24.27794 0-208.55492 163.982772-380.051829 371.531781-395.948891 7.699356 0.75213 15.510252 1.140986 23.38971 1.140986 9.954723 0 19.770276-0.618077 29.381168-1.802042 212.379015 10.934027 381.803729 184.638207 381.803729 396.608923 0 7.653307-0.410346 15.35164-0.910743 24.323988l44.821835 0.844228c0.454348-8.381901 0.865717-16.787338 0.865717-25.168216C959.56292 730.111576 815.692209 557.449121 621.80536 509.190001zM503.601214 492.40471c-105.721857 0-191.721533-85.99763-191.721533-191.720509 0-105.746416 85.999676-191.768605 191.721533-191.768605 105.791441 0 191.768605 86.022189 191.768605 191.768605C695.369819 406.40708 609.392656 492.40471 503.601214 492.40471z" fill="#333333" p-id="896"></path></svg>